<mxfile host="Electron" modified="2024-05-27T15:41:56.764Z" agent="Mozilla/5.0 (X11; Linux x86_64) AppleWebKit/537.36 (KHTML, like Gecko) draw.io/24.4.8 Chrome/124.0.6367.230 Electron/30.0.8 Safari/537.36" etag="5oBnlMde7exnFUhEE1h8" version="24.3.1" type="device">
  <diagram name="Page-1" id="13e1069c-82ec-6db2-03f1-153e76fe0fe0">
    <mxGraphModel dx="1299" dy="1466" grid="1" gridSize="10" guides="1" tooltips="1" connect="1" arrows="1" fold="1" page="1" pageScale="1" pageWidth="1100" pageHeight="850" background="none" math="0" shadow="0">
      <root>
        <mxCell id="0" />
        <mxCell id="1" parent="0" />
        <mxCell id="ETVLj9sLUO0IWVf3UIC_-13" value="Client" style="shape=umlLifeline;perimeter=lifelinePerimeter;whiteSpace=wrap;html=1;container=1;dropTarget=0;collapsible=0;recursiveResize=0;outlineConnect=0;portConstraint=eastwest;newEdgeStyle={&quot;curved&quot;:0,&quot;rounded&quot;:0};" vertex="1" parent="1">
          <mxGeometry x="40" y="40" width="100" height="360" as="geometry" />
        </mxCell>
        <mxCell id="ETVLj9sLUO0IWVf3UIC_-14" value="" style="html=1;points=[[0,0,0,0,5],[0,1,0,0,-5],[1,0,0,0,5],[1,1,0,0,-5]];perimeter=orthogonalPerimeter;outlineConnect=0;targetShapes=umlLifeline;portConstraint=eastwest;newEdgeStyle={&quot;curved&quot;:0,&quot;rounded&quot;:0};" vertex="1" parent="ETVLj9sLUO0IWVf3UIC_-13">
          <mxGeometry x="45" y="80" width="10" height="260" as="geometry" />
        </mxCell>
        <mxCell id="ETVLj9sLUO0IWVf3UIC_-15" value="Firewall" style="shape=umlLifeline;perimeter=lifelinePerimeter;whiteSpace=wrap;html=1;container=1;dropTarget=0;collapsible=0;recursiveResize=0;outlineConnect=0;portConstraint=eastwest;newEdgeStyle={&quot;curved&quot;:0,&quot;rounded&quot;:0};" vertex="1" parent="1">
          <mxGeometry x="200" y="40" width="100" height="360" as="geometry" />
        </mxCell>
        <mxCell id="ETVLj9sLUO0IWVf3UIC_-16" value="" style="html=1;points=[[0,0,0,0,5],[0,1,0,0,-5],[1,0,0,0,5],[1,1,0,0,-5]];perimeter=orthogonalPerimeter;outlineConnect=0;targetShapes=umlLifeline;portConstraint=eastwest;newEdgeStyle={&quot;curved&quot;:0,&quot;rounded&quot;:0};" vertex="1" parent="ETVLj9sLUO0IWVf3UIC_-15">
          <mxGeometry x="45" y="80" width="10" height="260" as="geometry" />
        </mxCell>
        <mxCell id="ETVLj9sLUO0IWVf3UIC_-17" value="Webserver" style="shape=umlLifeline;perimeter=lifelinePerimeter;whiteSpace=wrap;html=1;container=1;dropTarget=0;collapsible=0;recursiveResize=0;outlineConnect=0;portConstraint=eastwest;newEdgeStyle={&quot;curved&quot;:0,&quot;rounded&quot;:0};" vertex="1" parent="1">
          <mxGeometry x="360" y="40" width="100" height="360" as="geometry" />
        </mxCell>
        <mxCell id="ETVLj9sLUO0IWVf3UIC_-23" style="edgeStyle=orthogonalEdgeStyle;rounded=0;orthogonalLoop=1;jettySize=auto;html=1;curved=0;" edge="1" parent="ETVLj9sLUO0IWVf3UIC_-17" source="ETVLj9sLUO0IWVf3UIC_-18" target="ETVLj9sLUO0IWVf3UIC_-22">
          <mxGeometry relative="1" as="geometry">
            <Array as="points">
              <mxPoint x="80" y="140" />
              <mxPoint x="80" y="180" />
            </Array>
          </mxGeometry>
        </mxCell>
        <mxCell id="ETVLj9sLUO0IWVf3UIC_-29" value="Datenbank-&lt;div&gt;abfrage&lt;/div&gt;" style="edgeLabel;html=1;align=center;verticalAlign=middle;resizable=0;points=[];" vertex="1" connectable="0" parent="ETVLj9sLUO0IWVf3UIC_-23">
          <mxGeometry x="-0.1054" y="-2" relative="1" as="geometry">
            <mxPoint x="32" y="8" as="offset" />
          </mxGeometry>
        </mxCell>
        <mxCell id="ETVLj9sLUO0IWVf3UIC_-18" value="" style="html=1;points=[[0,0,0,0,5],[0,1,0,0,-5],[1,0,0,0,5],[1,1,0,0,-5]];perimeter=orthogonalPerimeter;outlineConnect=0;targetShapes=umlLifeline;portConstraint=eastwest;newEdgeStyle={&quot;curved&quot;:0,&quot;rounded&quot;:0};" vertex="1" parent="ETVLj9sLUO0IWVf3UIC_-17">
          <mxGeometry x="45" y="80" width="10" height="260" as="geometry" />
        </mxCell>
        <mxCell id="ETVLj9sLUO0IWVf3UIC_-24" style="edgeStyle=orthogonalEdgeStyle;rounded=0;orthogonalLoop=1;jettySize=auto;html=1;curved=0;" edge="1" parent="ETVLj9sLUO0IWVf3UIC_-17" source="ETVLj9sLUO0IWVf3UIC_-22" target="ETVLj9sLUO0IWVf3UIC_-18">
          <mxGeometry relative="1" as="geometry">
            <Array as="points">
              <mxPoint x="80" y="220" />
              <mxPoint x="80" y="260" />
            </Array>
          </mxGeometry>
        </mxCell>
        <mxCell id="ETVLj9sLUO0IWVf3UIC_-30" value="Datenbank-&lt;div&gt;ausgabe&lt;/div&gt;" style="edgeLabel;html=1;align=center;verticalAlign=middle;resizable=0;points=[];" vertex="1" connectable="0" parent="ETVLj9sLUO0IWVf3UIC_-24">
          <mxGeometry x="0.051" y="1" relative="1" as="geometry">
            <mxPoint x="29" y="-4" as="offset" />
          </mxGeometry>
        </mxCell>
        <mxCell id="ETVLj9sLUO0IWVf3UIC_-22" value="" style="html=1;points=[[0,0,0,0,5],[0,1,0,0,-5],[1,0,0,0,5],[1,1,0,0,-5]];perimeter=orthogonalPerimeter;outlineConnect=0;targetShapes=umlLifeline;portConstraint=eastwest;newEdgeStyle={&quot;curved&quot;:0,&quot;rounded&quot;:0};" vertex="1" parent="ETVLj9sLUO0IWVf3UIC_-17">
          <mxGeometry x="51" y="161" width="10" height="80" as="geometry" />
        </mxCell>
        <mxCell id="ETVLj9sLUO0IWVf3UIC_-19" style="edgeStyle=orthogonalEdgeStyle;rounded=0;orthogonalLoop=1;jettySize=auto;html=1;curved=0;" edge="1" parent="1" source="ETVLj9sLUO0IWVf3UIC_-14" target="ETVLj9sLUO0IWVf3UIC_-16">
          <mxGeometry relative="1" as="geometry">
            <Array as="points">
              <mxPoint x="150" y="140" />
              <mxPoint x="150" y="140" />
            </Array>
          </mxGeometry>
        </mxCell>
        <mxCell id="ETVLj9sLUO0IWVf3UIC_-27" value="http Anfrage" style="edgeLabel;html=1;align=center;verticalAlign=middle;resizable=0;points=[];" vertex="1" connectable="0" parent="ETVLj9sLUO0IWVf3UIC_-19">
          <mxGeometry x="0.139" y="-1" relative="1" as="geometry">
            <mxPoint x="-10" y="-11" as="offset" />
          </mxGeometry>
        </mxCell>
        <mxCell id="ETVLj9sLUO0IWVf3UIC_-20" style="edgeStyle=orthogonalEdgeStyle;rounded=0;orthogonalLoop=1;jettySize=auto;html=1;curved=0;" edge="1" parent="1" source="ETVLj9sLUO0IWVf3UIC_-16" target="ETVLj9sLUO0IWVf3UIC_-18">
          <mxGeometry relative="1" as="geometry">
            <Array as="points">
              <mxPoint x="330" y="160" />
              <mxPoint x="330" y="160" />
            </Array>
          </mxGeometry>
        </mxCell>
        <mxCell id="ETVLj9sLUO0IWVf3UIC_-28" value="http Anfrage" style="edgeLabel;html=1;align=center;verticalAlign=middle;resizable=0;points=[];" vertex="1" connectable="0" parent="ETVLj9sLUO0IWVf3UIC_-20">
          <mxGeometry x="-0.0438" y="-2" relative="1" as="geometry">
            <mxPoint y="-12" as="offset" />
          </mxGeometry>
        </mxCell>
        <mxCell id="ETVLj9sLUO0IWVf3UIC_-25" style="edgeStyle=orthogonalEdgeStyle;rounded=0;orthogonalLoop=1;jettySize=auto;html=1;curved=0;" edge="1" parent="1" source="ETVLj9sLUO0IWVf3UIC_-18" target="ETVLj9sLUO0IWVf3UIC_-16">
          <mxGeometry relative="1" as="geometry">
            <Array as="points">
              <mxPoint x="330" y="320" />
              <mxPoint x="330" y="320" />
            </Array>
          </mxGeometry>
        </mxCell>
        <mxCell id="ETVLj9sLUO0IWVf3UIC_-31" value="http Antwort" style="edgeLabel;html=1;align=center;verticalAlign=middle;resizable=0;points=[];" vertex="1" connectable="0" parent="ETVLj9sLUO0IWVf3UIC_-25">
          <mxGeometry x="0.2038" y="2" relative="1" as="geometry">
            <mxPoint x="15" y="8" as="offset" />
          </mxGeometry>
        </mxCell>
        <mxCell id="ETVLj9sLUO0IWVf3UIC_-26" style="edgeStyle=orthogonalEdgeStyle;rounded=0;orthogonalLoop=1;jettySize=auto;html=1;curved=0;" edge="1" parent="1" source="ETVLj9sLUO0IWVf3UIC_-16" target="ETVLj9sLUO0IWVf3UIC_-14">
          <mxGeometry relative="1" as="geometry">
            <Array as="points">
              <mxPoint x="180" y="340" />
              <mxPoint x="180" y="340" />
            </Array>
          </mxGeometry>
        </mxCell>
        <mxCell id="ETVLj9sLUO0IWVf3UIC_-32" value="http Antwort" style="edgeLabel;html=1;align=center;verticalAlign=middle;resizable=0;points=[];" vertex="1" connectable="0" parent="ETVLj9sLUO0IWVf3UIC_-26">
          <mxGeometry x="0.1581" y="2" relative="1" as="geometry">
            <mxPoint x="2" y="8" as="offset" />
          </mxGeometry>
        </mxCell>
      </root>
    </mxGraphModel>
  </diagram>
</mxfile>
